<svg width="40" height="28" viewBox="0 0 41 28" fill="none" xmlns="http://www.w3.org/2000/svg">
<path d="M5.01864 7.0261C5.01864 11.031 8.03986 14.0522 12.0447 14.0522C16.0496 14.0522 19.0708 11.031 19.0708 7.0261C19.0708 3.02122 16.0496 0 12.0447 0C8.03986 0 5.01864 3.02122 5.01864 7.0261ZM34.1268 5.91798H30.1118V11.9403H24.0895V15.9553H30.1118V21.9776H34.1268V15.9553H40.1491V11.9403H34.1268V5.91798ZM4.01491 28H24.0895V25.9925C24.0895 20.458 19.5868 15.9553 14.0522 15.9553H10.0373C4.50272 15.9553 0 20.458 0 25.9925V28H4.01491Z" fill="white"/>
</svg>
