<svg width="43" height="43" viewBox="0 0 43 43" fill="none" xmlns="http://www.w3.org/2000/svg">
<circle cx="21.5" cy="21.5" r="21.5" fill="#C4C4C4" fill-opacity="0.2"/>
<path d="M31.6435 14.5538H27.8947L27.0017 12.051C26.94 11.8798 26.8269 11.7317 26.6779 11.6271C26.5289 11.5225 26.3513 11.4665 26.1692 11.4667H17.7126C17.3404 11.4667 17.0069 11.701 16.8829 12.051L15.987 14.5538H12.2383C11.02 14.5538 10.0332 15.5406 10.0332 16.759V29.3282C10.0332 30.5465 11.02 31.5333 12.2383 31.5333H31.6435C32.8618 31.5333 33.8486 30.5465 33.8486 29.3282V16.759C33.8486 15.5406 32.8618 14.5538 31.6435 14.5538ZM21.9409 27.1231C19.5042 27.1231 17.5306 25.1495 17.5306 22.7128C17.5306 20.2761 19.5042 18.3026 21.9409 18.3026C24.3776 18.3026 26.3512 20.2761 26.3512 22.7128C26.3512 25.1495 24.3776 27.1231 21.9409 27.1231ZM19.2947 22.7128C19.2947 23.4146 19.5735 24.0877 20.0698 24.5839C20.566 25.0802 21.2391 25.359 21.9409 25.359C22.6427 25.359 23.3158 25.0802 23.812 24.5839C24.3083 24.0877 24.5871 23.4146 24.5871 22.7128C24.5871 22.011 24.3083 21.338 23.812 20.8417C23.3158 20.3455 22.6427 20.0667 21.9409 20.0667C21.2391 20.0667 20.566 20.3455 20.0698 20.8417C19.5735 21.338 19.2947 22.011 19.2947 22.7128Z" fill="black"/>
</svg>
