<svg width="24" height="24" viewBox="0 0 24 24" fill="none" xmlns="http://www.w3.org/2000/svg">
<path d="M0.5 12C0.5 5.65214 5.65214 0.5 12 0.5C18.3479 0.5 23.5 5.65214 23.5 12C23.5 18.3479 18.3479 23.5 12 23.5C5.65214 23.5 0.5 18.3479 0.5 12ZM1.9 12C1.9 17.5801 6.41986 22.1 12 22.1C17.5801 22.1 22.1 17.5801 22.1 12C22.1 6.41986 17.5801 1.9 12 1.9C6.41986 1.9 1.9 6.41986 1.9 12Z" fill="#1F9C00" stroke="#1F9C00"/>
<path d="M12 18C15.3137 18 18 15.3137 18 12C18 8.68629 15.3137 6 12 6C8.68629 6 6 8.68629 6 12C6 15.3137 8.68629 18 12 18Z" fill="#1F9C00"/>
</svg>
